<?xml version="1.0" encoding="UTF-8" standalone="no"?>
<!DOCTYPE svg PUBLIC "-//W3C//DTD SVG 1.1//EN"
 "http://www.w3.org/Graphics/SVG/1.1/DTD/svg11.dtd">
<!-- Generated by graphviz version 2.38.0 (20140413.2041)
 -->
<!-- Title: controllers_diagram Pages: 1 -->
<svg width="766pt" height="765pt"
 viewBox="0.00 0.00 766.50 765.50" xmlns="http://www.w3.org/2000/svg" xmlns:xlink="http://www.w3.org/1999/xlink">
<g id="graph0" class="graph" transform="scale(1 1) rotate(0) translate(276.5 422)">
<title>controllers_diagram</title>
<polygon fill="none" stroke="none" points="-276.5,343.5 -276.5,-422 490,-422 490,343.5 -276.5,343.5"/>
<!-- _diagram_info -->
<g id="node1" class="node"><title>_diagram_info</title>
<text text-anchor="start" x="280" y="38.4" font-family="Times,serif" font-size="13.00">Controllers diagram</text>
<text text-anchor="start" x="280" y="52.4" font-family="Times,serif" font-size="13.00">Date: Apr 29 2017 &#45; 13:15</text>
<text text-anchor="start" x="280" y="66.4" font-family="Times,serif" font-size="13.00">Migration version: 20170429161256</text>
<text text-anchor="start" x="280" y="80.4" font-family="Times,serif" font-size="13.00">Generated by RailRoady 1.5.2</text>
<text text-anchor="start" x="280" y="94.4" font-family="Times,serif" font-size="13.00">http://railroady.prestonlee.com</text>
</g>
<!-- EnterprisesController -->
<g id="node2" class="node"><title>EnterprisesController</title>
<path fill="none" stroke="black" d="M-55.5,118.5C-55.5,118.5 53.5,118.5 53.5,118.5 59.5,118.5 65.5,112.5 65.5,106.5 65.5,106.5 65.5,-82.5 65.5,-82.5 65.5,-88.5 59.5,-94.5 53.5,-94.5 53.5,-94.5 -55.5,-94.5 -55.5,-94.5 -61.5,-94.5 -67.5,-88.5 -67.5,-82.5 -67.5,-82.5 -67.5,106.5 -67.5,106.5 -67.5,112.5 -61.5,118.5 -55.5,118.5"/>
<text text-anchor="middle" x="-1" y="-79.3" font-family="Times,serif" font-size="14.00">EnterprisesController</text>
<polyline fill="none" stroke="black" points="-67.5,-71.5 65.5,-71.5 "/>
<text text-anchor="start" x="-59.5" y="-56.3" font-family="Times,serif" font-size="14.00">create</text>
<text text-anchor="start" x="-59.5" y="-41.3" font-family="Times,serif" font-size="14.00">destroy</text>
<text text-anchor="start" x="-59.5" y="-26.3" font-family="Times,serif" font-size="14.00">edit</text>
<text text-anchor="start" x="-59.5" y="-11.3" font-family="Times,serif" font-size="14.00">index</text>
<text text-anchor="start" x="-59.5" y="3.7" font-family="Times,serif" font-size="14.00">new</text>
<text text-anchor="start" x="-59.5" y="18.7" font-family="Times,serif" font-size="14.00">show</text>
<text text-anchor="start" x="-59.5" y="33.7" font-family="Times,serif" font-size="14.00">update</text>
<polyline fill="none" stroke="black" points="-67.5,41.5 65.5,41.5 "/>
<polyline fill="none" stroke="black" points="-67.5,65.5 65.5,65.5 "/>
<text text-anchor="start" x="-59.5" y="80.7" font-family="Times,serif" font-size="14.00">_layout</text>
<text text-anchor="start" x="-59.5" y="95.7" font-family="Times,serif" font-size="14.00">enterprise_params</text>
<text text-anchor="start" x="-59.5" y="110.7" font-family="Times,serif" font-size="14.00">set_enterprise</text>
</g>
<!-- ServicesController -->
<g id="node3" class="node"><title>ServicesController</title>
<path fill="none" stroke="black" d="M-39,-136.5C-39,-136.5 55,-136.5 55,-136.5 61,-136.5 67,-142.5 67,-148.5 67,-148.5 67,-337.5 67,-337.5 67,-343.5 61,-349.5 55,-349.5 55,-349.5 -39,-349.5 -39,-349.5 -45,-349.5 -51,-343.5 -51,-337.5 -51,-337.5 -51,-148.5 -51,-148.5 -51,-142.5 -45,-136.5 -39,-136.5"/>
<text text-anchor="middle" x="8" y="-334.3" font-family="Times,serif" font-size="14.00">ServicesController</text>
<polyline fill="none" stroke="black" points="-51,-326.5 67,-326.5 "/>
<text text-anchor="start" x="-43" y="-311.3" font-family="Times,serif" font-size="14.00">create</text>
<text text-anchor="start" x="-43" y="-296.3" font-family="Times,serif" font-size="14.00">destroy</text>
<text text-anchor="start" x="-43" y="-281.3" font-family="Times,serif" font-size="14.00">edit</text>
<text text-anchor="start" x="-43" y="-266.3" font-family="Times,serif" font-size="14.00">index</text>
<text text-anchor="start" x="-43" y="-251.3" font-family="Times,serif" font-size="14.00">new</text>
<text text-anchor="start" x="-43" y="-236.3" font-family="Times,serif" font-size="14.00">show</text>
<text text-anchor="start" x="-43" y="-221.3" font-family="Times,serif" font-size="14.00">update</text>
<polyline fill="none" stroke="black" points="-51,-213.5 67,-213.5 "/>
<polyline fill="none" stroke="black" points="-51,-189.5 67,-189.5 "/>
<text text-anchor="start" x="-43" y="-174.3" font-family="Times,serif" font-size="14.00">_layout</text>
<text text-anchor="start" x="-43" y="-159.3" font-family="Times,serif" font-size="14.00">service_params</text>
<text text-anchor="start" x="-43" y="-144.3" font-family="Times,serif" font-size="14.00">set_service</text>
</g>
<!-- ChargesController -->
<g id="node4" class="node"><title>ChargesController</title>
<path fill="none" stroke="black" d="M165,-153.5C165,-153.5 257,-153.5 257,-153.5 263,-153.5 269,-159.5 269,-165.5 269,-165.5 269,-354.5 269,-354.5 269,-360.5 263,-366.5 257,-366.5 257,-366.5 165,-366.5 165,-366.5 159,-366.5 153,-360.5 153,-354.5 153,-354.5 153,-165.5 153,-165.5 153,-159.5 159,-153.5 165,-153.5"/>
<text text-anchor="middle" x="211" y="-351.3" font-family="Times,serif" font-size="14.00">ChargesController</text>
<polyline fill="none" stroke="black" points="153,-343.5 269,-343.5 "/>
<text text-anchor="start" x="161" y="-328.3" font-family="Times,serif" font-size="14.00">create</text>
<text text-anchor="start" x="161" y="-313.3" font-family="Times,serif" font-size="14.00">destroy</text>
<text text-anchor="start" x="161" y="-298.3" font-family="Times,serif" font-size="14.00">edit</text>
<text text-anchor="start" x="161" y="-283.3" font-family="Times,serif" font-size="14.00">index</text>
<text text-anchor="start" x="161" y="-268.3" font-family="Times,serif" font-size="14.00">new</text>
<text text-anchor="start" x="161" y="-253.3" font-family="Times,serif" font-size="14.00">show</text>
<text text-anchor="start" x="161" y="-238.3" font-family="Times,serif" font-size="14.00">update</text>
<polyline fill="none" stroke="black" points="153,-230.5 269,-230.5 "/>
<polyline fill="none" stroke="black" points="153,-206.5 269,-206.5 "/>
<text text-anchor="start" x="161" y="-191.3" font-family="Times,serif" font-size="14.00">_layout</text>
<text text-anchor="start" x="161" y="-176.3" font-family="Times,serif" font-size="14.00">charge_params</text>
<text text-anchor="start" x="161" y="-161.3" font-family="Times,serif" font-size="14.00">set_charge</text>
</g>
<!-- Users::RegistrationsController -->
<g id="node5" class="node"><title>Users::RegistrationsController</title>
<path fill="none" stroke="black" d="M114,237C114,237 296,237 296,237 302,237 308,231 308,225 308,225 308,141 308,141 308,135 302,129 296,129 296,129 114,129 114,129 108,129 102,135 102,141 102,141 102,225 102,225 102,231 108,237 114,237"/>
<text text-anchor="middle" x="205" y="144.2" font-family="Times,serif" font-size="14.00">Users::RegistrationsController</text>
<polyline fill="none" stroke="black" points="102,152 308,152 "/>
<text text-anchor="start" x="110" y="167.2" font-family="Times,serif" font-size="14.00">configure_account_update_params</text>
<text text-anchor="start" x="110" y="182.2" font-family="Times,serif" font-size="14.00">configure_sign_up_params</text>
<polyline fill="none" stroke="black" points="102,190 308,190 "/>
<polyline fill="none" stroke="black" points="102,214 308,214 "/>
<text text-anchor="start" x="110" y="229.2" font-family="Times,serif" font-size="14.00">_layout</text>
</g>
<!-- Users::PasswordsController -->
<g id="node6" class="node"><title>Users::PasswordsController</title>
<path fill="none" stroke="black" d="M-260.5,-69C-260.5,-69 -117.5,-69 -117.5,-69 -111.5,-69 -105.5,-75 -105.5,-81 -105.5,-81 -105.5,-151 -105.5,-151 -105.5,-157 -111.5,-163 -117.5,-163 -117.5,-163 -260.5,-163 -260.5,-163 -266.5,-163 -272.5,-157 -272.5,-151 -272.5,-151 -272.5,-81 -272.5,-81 -272.5,-75 -266.5,-69 -260.5,-69"/>
<text text-anchor="middle" x="-189" y="-147.8" font-family="Times,serif" font-size="14.00">Users::PasswordsController</text>
<polyline fill="none" stroke="black" points="-272.5,-140 -105.5,-140 "/>
<polyline fill="none" stroke="black" points="-272.5,-116 -105.5,-116 "/>
<polyline fill="none" stroke="black" points="-272.5,-92 -105.5,-92 "/>
<text text-anchor="start" x="-264.5" y="-76.8" font-family="Times,serif" font-size="14.00">_layout</text>
</g>
<!-- Users::UnlocksController -->
<g id="node7" class="node"><title>Users::UnlocksController</title>
<path fill="none" stroke="black" d="M-242.5,67C-242.5,67 -111.5,67 -111.5,67 -105.5,67 -99.5,61 -99.5,55 -99.5,55 -99.5,-15 -99.5,-15 -99.5,-21 -105.5,-27 -111.5,-27 -111.5,-27 -242.5,-27 -242.5,-27 -248.5,-27 -254.5,-21 -254.5,-15 -254.5,-15 -254.5,55 -254.5,55 -254.5,61 -248.5,67 -242.5,67"/>
<text text-anchor="middle" x="-177" y="-11.8" font-family="Times,serif" font-size="14.00">Users::UnlocksController</text>
<polyline fill="none" stroke="black" points="-254.5,-4 -99.5,-4 "/>
<polyline fill="none" stroke="black" points="-254.5,20 -99.5,20 "/>
<polyline fill="none" stroke="black" points="-254.5,44 -99.5,44 "/>
<text text-anchor="start" x="-246.5" y="59.2" font-family="Times,serif" font-size="14.00">_layout</text>
</g>
<!-- Users::ConfirmationsController -->
<g id="node8" class="node"><title>Users::ConfirmationsController</title>
<path fill="none" stroke="black" d="M284.5,-18C284.5,-18 449.5,-18 449.5,-18 455.5,-18 461.5,-24 461.5,-30 461.5,-30 461.5,-100 461.5,-100 461.5,-106 455.5,-112 449.5,-112 449.5,-112 284.5,-112 284.5,-112 278.5,-112 272.5,-106 272.5,-100 272.5,-100 272.5,-30 272.5,-30 272.5,-24 278.5,-18 284.5,-18"/>
<text text-anchor="middle" x="367" y="-96.8" font-family="Times,serif" font-size="14.00">Users::ConfirmationsController</text>
<polyline fill="none" stroke="black" points="272.5,-89 461.5,-89 "/>
<polyline fill="none" stroke="black" points="272.5,-65 461.5,-65 "/>
<polyline fill="none" stroke="black" points="272.5,-41 461.5,-41 "/>
<text text-anchor="start" x="280.5" y="-25.8" font-family="Times,serif" font-size="14.00">_layout</text>
</g>
<!-- Users::OmniauthCallbacksController -->
<g id="node9" class="node"><title>Users::OmniauthCallbacksController</title>
<path fill="none" stroke="black" d="M-243,254C-243,254 -49,254 -49,254 -43,254 -37,248 -37,242 -37,242 -37,158 -37,158 -37,152 -43,146 -49,146 -49,146 -243,146 -243,146 -249,146 -255,152 -255,158 -255,158 -255,242 -255,242 -255,248 -249,254 -243,254"/>
<text text-anchor="middle" x="-146" y="161.2" font-family="Times,serif" font-size="14.00">Users::OmniauthCallbacksController</text>
<polyline fill="none" stroke="black" points="-255,169 -37,169 "/>
<text text-anchor="start" x="-247" y="184.2" font-family="Times,serif" font-size="14.00">failure</text>
<text text-anchor="start" x="-247" y="199.2" font-family="Times,serif" font-size="14.00">linkedin</text>
<polyline fill="none" stroke="black" points="-255,207 -37,207 "/>
<polyline fill="none" stroke="black" points="-255,231 -37,231 "/>
<text text-anchor="start" x="-247" y="246.2" font-family="Times,serif" font-size="14.00">_layout</text>
</g>
<!-- Users::SessionsController -->
<g id="node10" class="node"><title>Users::SessionsController</title>
<path fill="none" stroke="black" d="M318.5,-154C318.5,-154 451.5,-154 451.5,-154 457.5,-154 463.5,-160 463.5,-166 463.5,-166 463.5,-236 463.5,-236 463.5,-242 457.5,-248 451.5,-248 451.5,-248 318.5,-248 318.5,-248 312.5,-248 306.5,-242 306.5,-236 306.5,-236 306.5,-166 306.5,-166 306.5,-160 312.5,-154 318.5,-154"/>
<text text-anchor="middle" x="385" y="-232.8" font-family="Times,serif" font-size="14.00">Users::SessionsController</text>
<polyline fill="none" stroke="black" points="306.5,-225 463.5,-225 "/>
<polyline fill="none" stroke="black" points="306.5,-201 463.5,-201 "/>
<polyline fill="none" stroke="black" points="306.5,-177 463.5,-177 "/>
<text text-anchor="start" x="314.5" y="-161.8" font-family="Times,serif" font-size="14.00">_layout</text>
</g>
<!-- ApplicationController -->
<g id="node11" class="node"><title>ApplicationController</title>
<path fill="none" stroke="black" d="M318,-290C318,-290 430,-290 430,-290 436,-290 442,-296 442,-302 442,-302 442,-372 442,-372 442,-378 436,-384 430,-384 430,-384 318,-384 318,-384 312,-384 306,-378 306,-372 306,-372 306,-302 306,-302 306,-296 312,-290 318,-290"/>
<text text-anchor="middle" x="374" y="-368.8" font-family="Times,serif" font-size="14.00">ApplicationController</text>
<polyline fill="none" stroke="black" points="306,-361 442,-361 "/>
<polyline fill="none" stroke="black" points="306,-337 442,-337 "/>
<polyline fill="none" stroke="black" points="306,-313 442,-313 "/>
<text text-anchor="start" x="314" y="-297.8" font-family="Times,serif" font-size="14.00">_layout</text>
</g>
<!-- StudiesController -->
<g id="node12" class="node"><title>StudiesController</title>
<path fill="none" stroke="black" d="M-192,-204.5C-192,-204.5 -104,-204.5 -104,-204.5 -98,-204.5 -92,-210.5 -92,-216.5 -92,-216.5 -92,-405.5 -92,-405.5 -92,-411.5 -98,-417.5 -104,-417.5 -104,-417.5 -192,-417.5 -192,-417.5 -198,-417.5 -204,-411.5 -204,-405.5 -204,-405.5 -204,-216.5 -204,-216.5 -204,-210.5 -198,-204.5 -192,-204.5"/>
<text text-anchor="middle" x="-148" y="-402.3" font-family="Times,serif" font-size="14.00">StudiesController</text>
<polyline fill="none" stroke="black" points="-204,-394.5 -92,-394.5 "/>
<text text-anchor="start" x="-196" y="-379.3" font-family="Times,serif" font-size="14.00">create</text>
<text text-anchor="start" x="-196" y="-364.3" font-family="Times,serif" font-size="14.00">destroy</text>
<text text-anchor="start" x="-196" y="-349.3" font-family="Times,serif" font-size="14.00">edit</text>
<text text-anchor="start" x="-196" y="-334.3" font-family="Times,serif" font-size="14.00">index</text>
<text text-anchor="start" x="-196" y="-319.3" font-family="Times,serif" font-size="14.00">new</text>
<text text-anchor="start" x="-196" y="-304.3" font-family="Times,serif" font-size="14.00">show</text>
<text text-anchor="start" x="-196" y="-289.3" font-family="Times,serif" font-size="14.00">update</text>
<polyline fill="none" stroke="black" points="-204,-281.5 -92,-281.5 "/>
<polyline fill="none" stroke="black" points="-204,-257.5 -92,-257.5 "/>
<text text-anchor="start" x="-196" y="-242.3" font-family="Times,serif" font-size="14.00">_layout</text>
<text text-anchor="start" x="-196" y="-227.3" font-family="Times,serif" font-size="14.00">set_study</text>
<text text-anchor="start" x="-196" y="-212.3" font-family="Times,serif" font-size="14.00">study_params</text>
</g>
<!-- LanguagesController -->
<g id="node13" class="node"><title>LanguagesController</title>
<path fill="none" stroke="black" d="M114.5,101.5C114.5,101.5 221.5,101.5 221.5,101.5 227.5,101.5 233.5,95.5 233.5,89.5 233.5,89.5 233.5,-99.5 233.5,-99.5 233.5,-105.5 227.5,-111.5 221.5,-111.5 221.5,-111.5 114.5,-111.5 114.5,-111.5 108.5,-111.5 102.5,-105.5 102.5,-99.5 102.5,-99.5 102.5,89.5 102.5,89.5 102.5,95.5 108.5,101.5 114.5,101.5"/>
<text text-anchor="middle" x="168" y="-96.3" font-family="Times,serif" font-size="14.00">LanguagesController</text>
<polyline fill="none" stroke="black" points="102.5,-88.5 233.5,-88.5 "/>
<text text-anchor="start" x="110.5" y="-73.3" font-family="Times,serif" font-size="14.00">create</text>
<text text-anchor="start" x="110.5" y="-58.3" font-family="Times,serif" font-size="14.00">destroy</text>
<text text-anchor="start" x="110.5" y="-43.3" font-family="Times,serif" font-size="14.00">edit</text>
<text text-anchor="start" x="110.5" y="-28.3" font-family="Times,serif" font-size="14.00">index</text>
<text text-anchor="start" x="110.5" y="-13.3" font-family="Times,serif" font-size="14.00">new</text>
<text text-anchor="start" x="110.5" y="1.7" font-family="Times,serif" font-size="14.00">show</text>
<text text-anchor="start" x="110.5" y="16.7" font-family="Times,serif" font-size="14.00">update</text>
<polyline fill="none" stroke="black" points="102.5,24.5 233.5,24.5 "/>
<polyline fill="none" stroke="black" points="102.5,48.5 233.5,48.5 "/>
<text text-anchor="start" x="110.5" y="63.7" font-family="Times,serif" font-size="14.00">_layout</text>
<text text-anchor="start" x="110.5" y="78.7" font-family="Times,serif" font-size="14.00">language_params</text>
<text text-anchor="start" x="110.5" y="93.7" font-family="Times,serif" font-size="14.00">set_language</text>
</g>
<!-- HomeController -->
<g id="node14" class="node"><title>HomeController</title>
<path fill="none" stroke="black" d="M352,339C352,339 434,339 434,339 440,339 446,333 446,327 446,327 446,243 446,243 446,237 440,231 434,231 434,231 352,231 352,231 346,231 340,237 340,243 340,243 340,327 340,327 340,333 346,339 352,339"/>
<text text-anchor="middle" x="393" y="246.2" font-family="Times,serif" font-size="14.00">HomeController</text>
<polyline fill="none" stroke="black" points="340,254 446,254 "/>
<text text-anchor="start" x="348" y="269.2" font-family="Times,serif" font-size="14.00">index</text>
<text text-anchor="start" x="348" y="284.2" font-family="Times,serif" font-size="14.00">landing</text>
<polyline fill="none" stroke="black" points="340,292 446,292 "/>
<polyline fill="none" stroke="black" points="340,316 446,316 "/>
<text text-anchor="start" x="348" y="331.2" font-family="Times,serif" font-size="14.00">_layout</text>
</g>
</g>
</svg>
