<?xml version="1.0" encoding="UTF-8" standalone="no"?>
<!DOCTYPE svg PUBLIC "-//W3C//DTD SVG 1.1//EN"
 "http://www.w3.org/Graphics/SVG/1.1/DTD/svg11.dtd">
<!-- Generated by graphviz version 2.38.0 (20140413.2041)
 -->
<!-- Title: controllers_diagram Pages: 1 -->
<svg width="580pt" height="613pt"
 viewBox="0.00 0.00 580.00 613.00" xmlns="http://www.w3.org/2000/svg" xmlns:xlink="http://www.w3.org/1999/xlink">
<g id="graph0" class="graph" transform="scale(1 1) rotate(0) translate(196.5 337.5)">
<title>controllers_diagram</title>
<polygon fill="none" stroke="none" points="-196.5,275.5 -196.5,-337.5 383.5,-337.5 383.5,275.5 -196.5,275.5"/>
<!-- _diagram_info -->
<g id="node1" class="node"><title>_diagram_info</title>
<text text-anchor="start" x="152" y="80.4" font-family="Times,serif" font-size="13.00">Controllers diagram</text>
<text text-anchor="start" x="152" y="94.4" font-family="Times,serif" font-size="13.00">Date: Apr 28 2017 &#45; 17:21</text>
<text text-anchor="start" x="152" y="108.4" font-family="Times,serif" font-size="13.00">Migration version: 20170326003704</text>
<text text-anchor="start" x="152" y="122.4" font-family="Times,serif" font-size="13.00">Generated by RailRoady 1.5.2</text>
<text text-anchor="start" x="152" y="136.4" font-family="Times,serif" font-size="13.00">http://railroady.prestonlee.com</text>
</g>
<!-- Users::RegistrationsController -->
<g id="node2" class="node"><title>Users::RegistrationsController</title>
<path fill="none" stroke="black" d="M92,-81C92,-81 274,-81 274,-81 280,-81 286,-87 286,-93 286,-93 286,-177 286,-177 286,-183 280,-189 274,-189 274,-189 92,-189 92,-189 86,-189 80,-183 80,-177 80,-177 80,-93 80,-93 80,-87 86,-81 92,-81"/>
<text text-anchor="middle" x="183" y="-173.8" font-family="Times,serif" font-size="14.00">Users::RegistrationsController</text>
<polyline fill="none" stroke="black" points="80,-166 286,-166 "/>
<text text-anchor="start" x="88" y="-150.8" font-family="Times,serif" font-size="14.00">configure_account_update_params</text>
<text text-anchor="start" x="88" y="-135.8" font-family="Times,serif" font-size="14.00">configure_sign_up_params</text>
<polyline fill="none" stroke="black" points="80,-128 286,-128 "/>
<polyline fill="none" stroke="black" points="80,-104 286,-104 "/>
<text text-anchor="start" x="88" y="-88.8" font-family="Times,serif" font-size="14.00">_layout</text>
</g>
<!-- Users::PasswordsController -->
<g id="node3" class="node"><title>Users::PasswordsController</title>
<path fill="none" stroke="black" d="M-180.5,191C-180.5,191 -37.5,191 -37.5,191 -31.5,191 -25.5,185 -25.5,179 -25.5,179 -25.5,109 -25.5,109 -25.5,103 -31.5,97 -37.5,97 -37.5,97 -180.5,97 -180.5,97 -186.5,97 -192.5,103 -192.5,109 -192.5,109 -192.5,179 -192.5,179 -192.5,185 -186.5,191 -180.5,191"/>
<text text-anchor="middle" x="-109" y="112.2" font-family="Times,serif" font-size="14.00">Users::PasswordsController</text>
<polyline fill="none" stroke="black" points="-192.5,120 -25.5,120 "/>
<polyline fill="none" stroke="black" points="-192.5,144 -25.5,144 "/>
<polyline fill="none" stroke="black" points="-192.5,168 -25.5,168 "/>
<text text-anchor="start" x="-184.5" y="183.2" font-family="Times,serif" font-size="14.00">_layout</text>
</g>
<!-- Users::UnlocksController -->
<g id="node4" class="node"><title>Users::UnlocksController</title>
<path fill="none" stroke="black" d="M236.5,-225C236.5,-225 367.5,-225 367.5,-225 373.5,-225 379.5,-231 379.5,-237 379.5,-237 379.5,-307 379.5,-307 379.5,-313 373.5,-319 367.5,-319 367.5,-319 236.5,-319 236.5,-319 230.5,-319 224.5,-313 224.5,-307 224.5,-307 224.5,-237 224.5,-237 224.5,-231 230.5,-225 236.5,-225"/>
<text text-anchor="middle" x="302" y="-303.8" font-family="Times,serif" font-size="14.00">Users::UnlocksController</text>
<polyline fill="none" stroke="black" points="224.5,-296 379.5,-296 "/>
<polyline fill="none" stroke="black" points="224.5,-272 379.5,-272 "/>
<polyline fill="none" stroke="black" points="224.5,-248 379.5,-248 "/>
<text text-anchor="start" x="232.5" y="-232.8" font-family="Times,serif" font-size="14.00">_layout</text>
</g>
<!-- Users::ConfirmationsController -->
<g id="node5" class="node"><title>Users::ConfirmationsController</title>
<path fill="none" stroke="black" d="M-131.5,-145C-131.5,-145 33.5,-145 33.5,-145 39.5,-145 45.5,-151 45.5,-157 45.5,-157 45.5,-227 45.5,-227 45.5,-233 39.5,-239 33.5,-239 33.5,-239 -131.5,-239 -131.5,-239 -137.5,-239 -143.5,-233 -143.5,-227 -143.5,-227 -143.5,-157 -143.5,-157 -143.5,-151 -137.5,-145 -131.5,-145"/>
<text text-anchor="middle" x="-49" y="-223.8" font-family="Times,serif" font-size="14.00">Users::ConfirmationsController</text>
<polyline fill="none" stroke="black" points="-143.5,-216 45.5,-216 "/>
<polyline fill="none" stroke="black" points="-143.5,-192 45.5,-192 "/>
<polyline fill="none" stroke="black" points="-143.5,-168 45.5,-168 "/>
<text text-anchor="start" x="-135.5" y="-152.8" font-family="Times,serif" font-size="14.00">_layout</text>
</g>
<!-- Users::OmniauthCallbacksController -->
<g id="node6" class="node"><title>Users::OmniauthCallbacksController</title>
<path fill="none" stroke="black" d="M-100,63C-100,63 94,63 94,63 100,63 106,57 106,51 106,51 106,-33 106,-33 106,-39 100,-45 94,-45 94,-45 -100,-45 -100,-45 -106,-45 -112,-39 -112,-33 -112,-33 -112,51 -112,51 -112,57 -106,63 -100,63"/>
<text text-anchor="middle" x="-3" y="-29.8" font-family="Times,serif" font-size="14.00">Users::OmniauthCallbacksController</text>
<polyline fill="none" stroke="black" points="-112,-22 106,-22 "/>
<text text-anchor="start" x="-104" y="-6.8" font-family="Times,serif" font-size="14.00">failure</text>
<text text-anchor="start" x="-104" y="8.2" font-family="Times,serif" font-size="14.00">linkedin</text>
<polyline fill="none" stroke="black" points="-112,16 106,16 "/>
<polyline fill="none" stroke="black" points="-112,40 106,40 "/>
<text text-anchor="start" x="-104" y="55.2" font-family="Times,serif" font-size="14.00">_layout</text>
</g>
<!-- Users::SessionsController -->
<g id="node7" class="node"><title>Users::SessionsController</title>
<path fill="none" stroke="black" d="M12.5,271C12.5,271 145.5,271 145.5,271 151.5,271 157.5,265 157.5,259 157.5,259 157.5,189 157.5,189 157.5,183 151.5,177 145.5,177 145.5,177 12.5,177 12.5,177 6.5,177 0.5,183 0.5,189 0.5,189 0.5,259 0.5,259 0.5,265 6.5,271 12.5,271"/>
<text text-anchor="middle" x="79" y="192.2" font-family="Times,serif" font-size="14.00">Users::SessionsController</text>
<polyline fill="none" stroke="black" points="0.5,200 157.5,200 "/>
<polyline fill="none" stroke="black" points="0.5,224 157.5,224 "/>
<polyline fill="none" stroke="black" points="0.5,248 157.5,248 "/>
<text text-anchor="start" x="8.5" y="263.2" font-family="Times,serif" font-size="14.00">_layout</text>
</g>
<!-- ApplicationController -->
<g id="node8" class="node"><title>ApplicationController</title>
<path fill="none" stroke="black" d="M204,271C204,271 316,271 316,271 322,271 328,265 328,259 328,259 328,189 328,189 328,183 322,177 316,177 316,177 204,177 204,177 198,177 192,183 192,189 192,189 192,259 192,259 192,265 198,271 204,271"/>
<text text-anchor="middle" x="260" y="192.2" font-family="Times,serif" font-size="14.00">ApplicationController</text>
<polyline fill="none" stroke="black" points="192,200 328,200 "/>
<polyline fill="none" stroke="black" points="192,224 328,224 "/>
<polyline fill="none" stroke="black" points="192,248 328,248 "/>
<text text-anchor="start" x="200" y="263.2" font-family="Times,serif" font-size="14.00">_layout</text>
</g>
<!-- HomeController -->
<g id="node9" class="node"><title>HomeController</title>
<path fill="none" stroke="black" d="M92,-225C92,-225 174,-225 174,-225 180,-225 186,-231 186,-237 186,-237 186,-321 186,-321 186,-327 180,-333 174,-333 174,-333 92,-333 92,-333 86,-333 80,-327 80,-321 80,-321 80,-237 80,-237 80,-231 86,-225 92,-225"/>
<text text-anchor="middle" x="133" y="-317.8" font-family="Times,serif" font-size="14.00">HomeController</text>
<polyline fill="none" stroke="black" points="80,-310 186,-310 "/>
<text text-anchor="start" x="88" y="-294.8" font-family="Times,serif" font-size="14.00">index</text>
<text text-anchor="start" x="88" y="-279.8" font-family="Times,serif" font-size="14.00">landing</text>
<polyline fill="none" stroke="black" points="80,-272 186,-272 "/>
<polyline fill="none" stroke="black" points="80,-248 186,-248 "/>
<text text-anchor="start" x="88" y="-232.8" font-family="Times,serif" font-size="14.00">_layout</text>
</g>
</g>
</svg>
