<?xml version="1.0" encoding="UTF-8" standalone="no"?>
<!DOCTYPE svg PUBLIC "-//W3C//DTD SVG 1.1//EN"
 "http://www.w3.org/Graphics/SVG/1.1/DTD/svg11.dtd">
<!-- Generated by graphviz version 2.38.0 (20140413.2041)
 -->
<!-- Title: controllers_diagram Pages: 1 -->
<svg width="693pt" height="661pt"
 viewBox="0.00 0.00 693.00 661.00" xmlns="http://www.w3.org/2000/svg" xmlns:xlink="http://www.w3.org/1999/xlink">
<g id="graph0" class="graph" transform="scale(1 1) rotate(0) translate(275.5 417.5)">
<title>controllers_diagram</title>
<polygon fill="none" stroke="none" points="-275.5,243.5 -275.5,-417.5 417.5,-417.5 417.5,243.5 -275.5,243.5"/>
<!-- _diagram_info -->
<g id="node1" class="node"><title>_diagram_info</title>
<text text-anchor="start" x="88" y="128.4" font-family="Times,serif" font-size="13.00">Controllers diagram</text>
<text text-anchor="start" x="88" y="142.4" font-family="Times,serif" font-size="13.00">Date: Apr 28 2017 &#45; 19:05</text>
<text text-anchor="start" x="88" y="156.4" font-family="Times,serif" font-size="13.00">Migration version: 20170428204026</text>
<text text-anchor="start" x="88" y="170.4" font-family="Times,serif" font-size="13.00">Generated by RailRoady 1.5.2</text>
<text text-anchor="start" x="88" y="184.4" font-family="Times,serif" font-size="13.00">http://railroady.prestonlee.com</text>
</g>
<!-- EnterprisesController -->
<g id="node2" class="node"><title>EnterprisesController</title>
<path fill="none" stroke="black" d="M-67.5,111.5C-67.5,111.5 41.5,111.5 41.5,111.5 47.5,111.5 53.5,105.5 53.5,99.5 53.5,99.5 53.5,-89.5 53.5,-89.5 53.5,-95.5 47.5,-101.5 41.5,-101.5 41.5,-101.5 -67.5,-101.5 -67.5,-101.5 -73.5,-101.5 -79.5,-95.5 -79.5,-89.5 -79.5,-89.5 -79.5,99.5 -79.5,99.5 -79.5,105.5 -73.5,111.5 -67.5,111.5"/>
<text text-anchor="middle" x="-13" y="-86.3" font-family="Times,serif" font-size="14.00">EnterprisesController</text>
<polyline fill="none" stroke="black" points="-79.5,-78.5 53.5,-78.5 "/>
<text text-anchor="start" x="-71.5" y="-63.3" font-family="Times,serif" font-size="14.00">create</text>
<text text-anchor="start" x="-71.5" y="-48.3" font-family="Times,serif" font-size="14.00">destroy</text>
<text text-anchor="start" x="-71.5" y="-33.3" font-family="Times,serif" font-size="14.00">edit</text>
<text text-anchor="start" x="-71.5" y="-18.3" font-family="Times,serif" font-size="14.00">index</text>
<text text-anchor="start" x="-71.5" y="-3.3" font-family="Times,serif" font-size="14.00">new</text>
<text text-anchor="start" x="-71.5" y="11.7" font-family="Times,serif" font-size="14.00">show</text>
<text text-anchor="start" x="-71.5" y="26.7" font-family="Times,serif" font-size="14.00">update</text>
<polyline fill="none" stroke="black" points="-79.5,34.5 53.5,34.5 "/>
<polyline fill="none" stroke="black" points="-79.5,58.5 53.5,58.5 "/>
<text text-anchor="start" x="-71.5" y="73.7" font-family="Times,serif" font-size="14.00">_layout</text>
<text text-anchor="start" x="-71.5" y="88.7" font-family="Times,serif" font-size="14.00">enterprise_params</text>
<text text-anchor="start" x="-71.5" y="103.7" font-family="Times,serif" font-size="14.00">set_enterprise</text>
</g>
<!-- Users::RegistrationsController -->
<g id="node3" class="node"><title>Users::RegistrationsController</title>
<path fill="none" stroke="black" d="M-148,-161C-148,-161 34,-161 34,-161 40,-161 46,-167 46,-173 46,-173 46,-257 46,-257 46,-263 40,-269 34,-269 34,-269 -148,-269 -148,-269 -154,-269 -160,-263 -160,-257 -160,-257 -160,-173 -160,-173 -160,-167 -154,-161 -148,-161"/>
<text text-anchor="middle" x="-57" y="-253.8" font-family="Times,serif" font-size="14.00">Users::RegistrationsController</text>
<polyline fill="none" stroke="black" points="-160,-246 46,-246 "/>
<text text-anchor="start" x="-152" y="-230.8" font-family="Times,serif" font-size="14.00">configure_account_update_params</text>
<text text-anchor="start" x="-152" y="-215.8" font-family="Times,serif" font-size="14.00">configure_sign_up_params</text>
<polyline fill="none" stroke="black" points="-160,-208 46,-208 "/>
<polyline fill="none" stroke="black" points="-160,-184 46,-184 "/>
<text text-anchor="start" x="-152" y="-168.8" font-family="Times,serif" font-size="14.00">_layout</text>
</g>
<!-- Users::PasswordsController -->
<g id="node4" class="node"><title>Users::PasswordsController</title>
<path fill="none" stroke="black" d="M235.5,-193C235.5,-193 378.5,-193 378.5,-193 384.5,-193 390.5,-199 390.5,-205 390.5,-205 390.5,-275 390.5,-275 390.5,-281 384.5,-287 378.5,-287 378.5,-287 235.5,-287 235.5,-287 229.5,-287 223.5,-281 223.5,-275 223.5,-275 223.5,-205 223.5,-205 223.5,-199 229.5,-193 235.5,-193"/>
<text text-anchor="middle" x="307" y="-271.8" font-family="Times,serif" font-size="14.00">Users::PasswordsController</text>
<polyline fill="none" stroke="black" points="223.5,-264 390.5,-264 "/>
<polyline fill="none" stroke="black" points="223.5,-240 390.5,-240 "/>
<polyline fill="none" stroke="black" points="223.5,-216 390.5,-216 "/>
<text text-anchor="start" x="231.5" y="-200.8" font-family="Times,serif" font-size="14.00">_layout</text>
</g>
<!-- Users::UnlocksController -->
<g id="node5" class="node"><title>Users::UnlocksController</title>
<path fill="none" stroke="black" d="M-227.5,239C-227.5,239 -96.5,239 -96.5,239 -90.5,239 -84.5,233 -84.5,227 -84.5,227 -84.5,157 -84.5,157 -84.5,151 -90.5,145 -96.5,145 -96.5,145 -227.5,145 -227.5,145 -233.5,145 -239.5,151 -239.5,157 -239.5,157 -239.5,227 -239.5,227 -239.5,233 -233.5,239 -227.5,239"/>
<text text-anchor="middle" x="-162" y="160.2" font-family="Times,serif" font-size="14.00">Users::UnlocksController</text>
<polyline fill="none" stroke="black" points="-239.5,168 -84.5,168 "/>
<polyline fill="none" stroke="black" points="-239.5,192 -84.5,192 "/>
<polyline fill="none" stroke="black" points="-239.5,216 -84.5,216 "/>
<text text-anchor="start" x="-231.5" y="231.2" font-family="Times,serif" font-size="14.00">_layout</text>
</g>
<!-- Users::ConfirmationsController -->
<g id="node6" class="node"><title>Users::ConfirmationsController</title>
<path fill="none" stroke="black" d="M236.5,-65C236.5,-65 401.5,-65 401.5,-65 407.5,-65 413.5,-71 413.5,-77 413.5,-77 413.5,-147 413.5,-147 413.5,-153 407.5,-159 401.5,-159 401.5,-159 236.5,-159 236.5,-159 230.5,-159 224.5,-153 224.5,-147 224.5,-147 224.5,-77 224.5,-77 224.5,-71 230.5,-65 236.5,-65"/>
<text text-anchor="middle" x="319" y="-143.8" font-family="Times,serif" font-size="14.00">Users::ConfirmationsController</text>
<polyline fill="none" stroke="black" points="224.5,-136 413.5,-136 "/>
<polyline fill="none" stroke="black" points="224.5,-112 413.5,-112 "/>
<polyline fill="none" stroke="black" points="224.5,-88 413.5,-88 "/>
<text text-anchor="start" x="232.5" y="-72.8" font-family="Times,serif" font-size="14.00">_layout</text>
</g>
<!-- Users::OmniauthCallbacksController -->
<g id="node7" class="node"><title>Users::OmniauthCallbacksController</title>
<path fill="none" stroke="black" d="M92,79C92,79 286,79 286,79 292,79 298,73 298,67 298,67 298,-17 298,-17 298,-23 292,-29 286,-29 286,-29 92,-29 92,-29 86,-29 80,-23 80,-17 80,-17 80,67 80,67 80,73 86,79 92,79"/>
<text text-anchor="middle" x="189" y="-13.8" font-family="Times,serif" font-size="14.00">Users::OmniauthCallbacksController</text>
<polyline fill="none" stroke="black" points="80,-6 298,-6 "/>
<text text-anchor="start" x="88" y="9.2" font-family="Times,serif" font-size="14.00">failure</text>
<text text-anchor="start" x="88" y="24.2" font-family="Times,serif" font-size="14.00">linkedin</text>
<polyline fill="none" stroke="black" points="80,32 298,32 "/>
<polyline fill="none" stroke="black" points="80,56 298,56 "/>
<text text-anchor="start" x="88" y="71.2" font-family="Times,serif" font-size="14.00">_layout</text>
</g>
<!-- Users::SessionsController -->
<g id="node8" class="node"><title>Users::SessionsController</title>
<path fill="none" stroke="black" d="M-259.5,-33C-259.5,-33 -126.5,-33 -126.5,-33 -120.5,-33 -114.5,-39 -114.5,-45 -114.5,-45 -114.5,-115 -114.5,-115 -114.5,-121 -120.5,-127 -126.5,-127 -126.5,-127 -259.5,-127 -259.5,-127 -265.5,-127 -271.5,-121 -271.5,-115 -271.5,-115 -271.5,-45 -271.5,-45 -271.5,-39 -265.5,-33 -259.5,-33"/>
<text text-anchor="middle" x="-193" y="-111.8" font-family="Times,serif" font-size="14.00">Users::SessionsController</text>
<polyline fill="none" stroke="black" points="-271.5,-104 -114.5,-104 "/>
<polyline fill="none" stroke="black" points="-271.5,-80 -114.5,-80 "/>
<polyline fill="none" stroke="black" points="-271.5,-56 -114.5,-56 "/>
<text text-anchor="start" x="-263.5" y="-40.8" font-family="Times,serif" font-size="14.00">_layout</text>
</g>
<!-- ApplicationController -->
<g id="node9" class="node"><title>ApplicationController</title>
<path fill="none" stroke="black" d="M-244,95C-244,95 -132,95 -132,95 -126,95 -120,89 -120,83 -120,83 -120,13 -120,13 -120,7 -126,1 -132,1 -132,1 -244,1 -244,1 -250,1 -256,7 -256,13 -256,13 -256,83 -256,83 -256,89 -250,95 -244,95"/>
<text text-anchor="middle" x="-188" y="16.2" font-family="Times,serif" font-size="14.00">ApplicationController</text>
<polyline fill="none" stroke="black" points="-256,24 -120,24 "/>
<polyline fill="none" stroke="black" points="-256,48 -120,48 "/>
<polyline fill="none" stroke="black" points="-256,72 -120,72 "/>
<text text-anchor="start" x="-248" y="87.2" font-family="Times,serif" font-size="14.00">_layout</text>
</g>
<!-- StudiesController -->
<g id="node10" class="node"><title>StudiesController</title>
<path fill="none" stroke="black" d="M92,-64.5C92,-64.5 180,-64.5 180,-64.5 186,-64.5 192,-70.5 192,-76.5 192,-76.5 192,-265.5 192,-265.5 192,-271.5 186,-277.5 180,-277.5 180,-277.5 92,-277.5 92,-277.5 86,-277.5 80,-271.5 80,-265.5 80,-265.5 80,-76.5 80,-76.5 80,-70.5 86,-64.5 92,-64.5"/>
<text text-anchor="middle" x="136" y="-262.3" font-family="Times,serif" font-size="14.00">StudiesController</text>
<polyline fill="none" stroke="black" points="80,-254.5 192,-254.5 "/>
<text text-anchor="start" x="88" y="-239.3" font-family="Times,serif" font-size="14.00">create</text>
<text text-anchor="start" x="88" y="-224.3" font-family="Times,serif" font-size="14.00">destroy</text>
<text text-anchor="start" x="88" y="-209.3" font-family="Times,serif" font-size="14.00">edit</text>
<text text-anchor="start" x="88" y="-194.3" font-family="Times,serif" font-size="14.00">index</text>
<text text-anchor="start" x="88" y="-179.3" font-family="Times,serif" font-size="14.00">new</text>
<text text-anchor="start" x="88" y="-164.3" font-family="Times,serif" font-size="14.00">show</text>
<text text-anchor="start" x="88" y="-149.3" font-family="Times,serif" font-size="14.00">update</text>
<polyline fill="none" stroke="black" points="80,-141.5 192,-141.5 "/>
<polyline fill="none" stroke="black" points="80,-117.5 192,-117.5 "/>
<text text-anchor="start" x="88" y="-102.3" font-family="Times,serif" font-size="14.00">_layout</text>
<text text-anchor="start" x="88" y="-87.3" font-family="Times,serif" font-size="14.00">set_study</text>
<text text-anchor="start" x="88" y="-72.3" font-family="Times,serif" font-size="14.00">study_params</text>
</g>
<!-- HomeController -->
<g id="node11" class="node"><title>HomeController</title>
<path fill="none" stroke="black" d="M92,-305C92,-305 174,-305 174,-305 180,-305 186,-311 186,-317 186,-317 186,-401 186,-401 186,-407 180,-413 174,-413 174,-413 92,-413 92,-413 86,-413 80,-407 80,-401 80,-401 80,-317 80,-317 80,-311 86,-305 92,-305"/>
<text text-anchor="middle" x="133" y="-397.8" font-family="Times,serif" font-size="14.00">HomeController</text>
<polyline fill="none" stroke="black" points="80,-390 186,-390 "/>
<text text-anchor="start" x="88" y="-374.8" font-family="Times,serif" font-size="14.00">index</text>
<text text-anchor="start" x="88" y="-359.8" font-family="Times,serif" font-size="14.00">landing</text>
<polyline fill="none" stroke="black" points="80,-352 186,-352 "/>
<polyline fill="none" stroke="black" points="80,-328 186,-328 "/>
<text text-anchor="start" x="88" y="-312.8" font-family="Times,serif" font-size="14.00">_layout</text>
</g>
</g>
</svg>
