<?xml version="1.0" encoding="UTF-8" standalone="no"?>
<!DOCTYPE svg PUBLIC "-//W3C//DTD SVG 1.1//EN"
 "http://www.w3.org/Graphics/SVG/1.1/DTD/svg11.dtd">
<!-- Generated by graphviz version 2.38.0 (20140413.2041)
 -->
<!-- Title: models_diagram Pages: 1 -->
<svg width="1300pt" height="889pt"
 viewBox="0.00 0.00 1300.00 889.00" xmlns="http://www.w3.org/2000/svg" xmlns:xlink="http://www.w3.org/1999/xlink">
<g id="graph0" class="graph" transform="scale(1 1) rotate(0) translate(4 885)">
<title>models_diagram</title>
<polygon fill="none" stroke="none" points="-4,4 -4,-885 1296,-885 1296,4 -4,4"/>
<!-- _diagram_info -->
<g id="node1" class="node"><title>_diagram_info</title>
<text text-anchor="start" x="265" y="-754.6" font-family="Times,serif" font-size="13.00">Models diagram</text>
<text text-anchor="start" x="265" y="-740.6" font-family="Times,serif" font-size="13.00">Date: Apr 29 2017 &#45; 13:15</text>
<text text-anchor="start" x="265" y="-726.6" font-family="Times,serif" font-size="13.00">Migration version: 20170429161256</text>
<text text-anchor="start" x="265" y="-712.6" font-family="Times,serif" font-size="13.00">Generated by RailRoady 1.5.2</text>
<text text-anchor="start" x="265" y="-698.6" font-family="Times,serif" font-size="13.00">http://railroady.prestonlee.com</text>
</g>
<!-- Study -->
<g id="node2" class="node"><title>Study</title>
<path fill="none" stroke="black" d="M12,-384C12,-384 232,-384 232,-384 238,-384 244,-390 244,-396 244,-396 244,-523 244,-523 244,-529 238,-535 232,-535 232,-535 12,-535 12,-535 6,-535 0,-529 0,-523 0,-523 0,-396 0,-396 0,-390 6,-384 12,-384"/>
<text text-anchor="middle" x="122" y="-519.8" font-family="Times,serif" font-size="14.00">Study</text>
<polyline fill="none" stroke="black" points="0,-512 244,-512 "/>
<text text-anchor="start" x="8" y="-496.8" font-family="Times,serif" font-size="14.00">id :integer</text>
<text text-anchor="start" x="8" y="-481.8" font-family="Times,serif" font-size="14.00">title :character varying</text>
<text text-anchor="start" x="8" y="-466.8" font-family="Times,serif" font-size="14.00">initdate :date</text>
<text text-anchor="start" x="8" y="-451.8" font-family="Times,serif" font-size="14.00">enddate :date</text>
<text text-anchor="start" x="8" y="-436.8" font-family="Times,serif" font-size="14.00">grade :character varying</text>
<text text-anchor="start" x="8" y="-421.8" font-family="Times,serif" font-size="14.00">user_id :integer</text>
<text text-anchor="start" x="8" y="-406.8" font-family="Times,serif" font-size="14.00">created_at :timestamp without time zone</text>
<text text-anchor="start" x="8" y="-391.8" font-family="Times,serif" font-size="14.00">updated_at :timestamp without time zone</text>
</g>
<!-- Channel -->
<g id="node3" class="node"><title>Channel</title>
<path fill="none" stroke="black" d="M536,-181C536,-181 756,-181 756,-181 762,-181 768,-187 768,-193 768,-193 768,-290 768,-290 768,-296 762,-302 756,-302 756,-302 536,-302 536,-302 530,-302 524,-296 524,-290 524,-290 524,-193 524,-193 524,-187 530,-181 536,-181"/>
<text text-anchor="middle" x="646" y="-286.8" font-family="Times,serif" font-size="14.00">Channel</text>
<polyline fill="none" stroke="black" points="524,-279 768,-279 "/>
<text text-anchor="start" x="532" y="-263.8" font-family="Times,serif" font-size="14.00">id :integer</text>
<text text-anchor="start" x="532" y="-248.8" font-family="Times,serif" font-size="14.00">title :character varying</text>
<text text-anchor="start" x="532" y="-233.8" font-family="Times,serif" font-size="14.00">description :character varying</text>
<text text-anchor="start" x="532" y="-218.8" font-family="Times,serif" font-size="14.00">service_id :integer</text>
<text text-anchor="start" x="532" y="-203.8" font-family="Times,serif" font-size="14.00">created_at :timestamp without time zone</text>
<text text-anchor="start" x="532" y="-188.8" font-family="Times,serif" font-size="14.00">updated_at :timestamp without time zone</text>
</g>
<!-- ApplicationRecord -->
<g id="node4" class="node"><title>ApplicationRecord</title>
<ellipse fill="none" stroke="black" cx="898" cy="-730" rx="77.1866" ry="18"/>
<text text-anchor="middle" x="898" y="-726.3" font-family="Times,serif" font-size="14.00">ApplicationRecord</text>
</g>
<!-- Charge -->
<g id="node5" class="node"><title>Charge</title>
<path fill="none" stroke="black" d="M12,-143.5C12,-143.5 232,-143.5 232,-143.5 238,-143.5 244,-149.5 244,-155.5 244,-155.5 244,-327.5 244,-327.5 244,-333.5 238,-339.5 232,-339.5 232,-339.5 12,-339.5 12,-339.5 6,-339.5 0,-333.5 0,-327.5 0,-327.5 0,-155.5 0,-155.5 0,-149.5 6,-143.5 12,-143.5"/>
<text text-anchor="middle" x="122" y="-324.3" font-family="Times,serif" font-size="14.00">Charge</text>
<polyline fill="none" stroke="black" points="0,-316.5 244,-316.5 "/>
<text text-anchor="start" x="8" y="-301.3" font-family="Times,serif" font-size="14.00">id :integer</text>
<text text-anchor="start" x="8" y="-286.3" font-family="Times,serif" font-size="14.00">title :character varying</text>
<text text-anchor="start" x="8" y="-271.3" font-family="Times,serif" font-size="14.00">summary :character varying</text>
<text text-anchor="start" x="8" y="-256.3" font-family="Times,serif" font-size="14.00">start_date :date</text>
<text text-anchor="start" x="8" y="-241.3" font-family="Times,serif" font-size="14.00">end_date :date</text>
<text text-anchor="start" x="8" y="-226.3" font-family="Times,serif" font-size="14.00">is_current :boolean</text>
<text text-anchor="start" x="8" y="-211.3" font-family="Times,serif" font-size="14.00">enterprise_id :integer</text>
<text text-anchor="start" x="8" y="-196.3" font-family="Times,serif" font-size="14.00">org_level :character varying</text>
<text text-anchor="start" x="8" y="-181.3" font-family="Times,serif" font-size="14.00">market_responsability :character varying</text>
<text text-anchor="start" x="8" y="-166.3" font-family="Times,serif" font-size="14.00">created_at :timestamp without time zone</text>
<text text-anchor="start" x="8" y="-151.3" font-family="Times,serif" font-size="14.00">updated_at :timestamp without time zone</text>
</g>
<!-- Specialty -->
<g id="node11" class="node"><title>Specialty</title>
<path fill="none" stroke="black" d="M12,-0.5C12,-0.5 232,-0.5 232,-0.5 238,-0.5 244,-6.5 244,-12.5 244,-12.5 244,-94.5 244,-94.5 244,-100.5 238,-106.5 232,-106.5 232,-106.5 12,-106.5 12,-106.5 6,-106.5 0,-100.5 0,-94.5 0,-94.5 0,-12.5 0,-12.5 0,-6.5 6,-0.5 12,-0.5"/>
<text text-anchor="middle" x="122" y="-91.3" font-family="Times,serif" font-size="14.00">Specialty</text>
<polyline fill="none" stroke="black" points="0,-83.5 244,-83.5 "/>
<text text-anchor="start" x="8" y="-68.3" font-family="Times,serif" font-size="14.00">id :integer</text>
<text text-anchor="start" x="8" y="-53.3" font-family="Times,serif" font-size="14.00">title :character varying</text>
<text text-anchor="start" x="8" y="-38.3" font-family="Times,serif" font-size="14.00">created_at :timestamp without time zone</text>
<text text-anchor="start" x="8" y="-23.3" font-family="Times,serif" font-size="14.00">updated_at :timestamp without time zone</text>
<text text-anchor="start" x="8" y="-8.3" font-family="Times,serif" font-size="14.00">charge_id :integer</text>
</g>
<!-- Charge&#45;&gt;Specialty -->
<g id="edge1" class="edge"><title>Charge&#45;&gt;Specialty</title>
<path fill="none" stroke="#ec46b8" d="M122,-135.41C122,-129.041 122,-122.749 122,-116.657"/>
<ellipse fill="none" stroke="#ec46b8" cx="122" cy="-139.414" rx="4" ry="4"/>
<polygon fill="#ec46b8" stroke="#ec46b8" points="122,-116.613 126.5,-106.613 122,-111.613 122,-106.613 122,-106.613 122,-106.613 122,-111.613 117.5,-106.613 122,-116.613 122,-116.613"/>
</g>
<!-- Enterprise -->
<g id="node6" class="node"><title>Enterprise</title>
<path fill="none" stroke="black" d="M274,-384C274,-384 494,-384 494,-384 500,-384 506,-390 506,-396 506,-396 506,-523 506,-523 506,-529 500,-535 494,-535 494,-535 274,-535 274,-535 268,-535 262,-529 262,-523 262,-523 262,-396 262,-396 262,-390 268,-384 274,-384"/>
<text text-anchor="middle" x="384" y="-519.8" font-family="Times,serif" font-size="14.00">Enterprise</text>
<polyline fill="none" stroke="black" points="262,-512 506,-512 "/>
<text text-anchor="start" x="270" y="-496.8" font-family="Times,serif" font-size="14.00">id :integer</text>
<text text-anchor="start" x="270" y="-481.8" font-family="Times,serif" font-size="14.00">name :character varying</text>
<text text-anchor="start" x="270" y="-466.8" font-family="Times,serif" font-size="14.00">type :character varying</text>
<text text-anchor="start" x="270" y="-451.8" font-family="Times,serif" font-size="14.00">industry :character varying</text>
<text text-anchor="start" x="270" y="-436.8" font-family="Times,serif" font-size="14.00">ticker :character varying</text>
<text text-anchor="start" x="270" y="-421.8" font-family="Times,serif" font-size="14.00">user_id :integer</text>
<text text-anchor="start" x="270" y="-406.8" font-family="Times,serif" font-size="14.00">created_at :timestamp without time zone</text>
<text text-anchor="start" x="270" y="-391.8" font-family="Times,serif" font-size="14.00">updated_at :timestamp without time zone</text>
</g>
<!-- Enterprise&#45;&gt;Charge -->
<g id="edge2" class="edge"><title>Enterprise&#45;&gt;Charge</title>
<path fill="none" stroke="#827495" d="M286.932,-378.474C274.098,-367.894 260.799,-356.929 247.573,-346.026"/>
<ellipse fill="none" stroke="#827495" cx="290.381" cy="-381.318" rx="4.00002" ry="4.00002"/>
<polygon fill="#827495" stroke="#827495" points="247.514,-345.977 242.661,-336.144 243.656,-342.797 239.798,-339.616 239.798,-339.616 239.798,-339.616 243.656,-342.797 236.935,-343.088 247.514,-345.977 247.514,-345.977"/>
</g>
<!-- Sector -->
<g id="node8" class="node"><title>Sector</title>
<path fill="none" stroke="black" d="M274,-188.5C274,-188.5 494,-188.5 494,-188.5 500,-188.5 506,-194.5 506,-200.5 506,-200.5 506,-282.5 506,-282.5 506,-288.5 500,-294.5 494,-294.5 494,-294.5 274,-294.5 274,-294.5 268,-294.5 262,-288.5 262,-282.5 262,-282.5 262,-200.5 262,-200.5 262,-194.5 268,-188.5 274,-188.5"/>
<text text-anchor="middle" x="384" y="-279.3" font-family="Times,serif" font-size="14.00">Sector</text>
<polyline fill="none" stroke="black" points="262,-271.5 506,-271.5 "/>
<text text-anchor="start" x="270" y="-256.3" font-family="Times,serif" font-size="14.00">id :integer</text>
<text text-anchor="start" x="270" y="-241.3" font-family="Times,serif" font-size="14.00">title :character varying</text>
<text text-anchor="start" x="270" y="-226.3" font-family="Times,serif" font-size="14.00">enterprise_id :integer</text>
<text text-anchor="start" x="270" y="-211.3" font-family="Times,serif" font-size="14.00">created_at :timestamp without time zone</text>
<text text-anchor="start" x="270" y="-196.3" font-family="Times,serif" font-size="14.00">updated_at :timestamp without time zone</text>
</g>
<!-- Enterprise&#45;&gt;Sector -->
<g id="edge3" class="edge"><title>Enterprise&#45;&gt;Sector</title>
<path fill="none" stroke="#97b9d9" d="M384,-375.86C384,-352.317 384,-327.069 384,-304.945"/>
<ellipse fill="none" stroke="#97b9d9" cx="384" cy="-379.863" rx="4" ry="4"/>
<polygon fill="#97b9d9" stroke="#97b9d9" points="384,-304.687 388.5,-294.687 384,-299.687 384,-294.687 384,-294.687 384,-294.687 384,-299.687 379.5,-294.687 384,-304.687 384,-304.687"/>
</g>
<!-- Service -->
<g id="node7" class="node"><title>Service</title>
<path fill="none" stroke="black" d="M536,-399C536,-399 756,-399 756,-399 762,-399 768,-405 768,-411 768,-411 768,-508 768,-508 768,-514 762,-520 756,-520 756,-520 536,-520 536,-520 530,-520 524,-514 524,-508 524,-508 524,-411 524,-411 524,-405 530,-399 536,-399"/>
<text text-anchor="middle" x="646" y="-504.8" font-family="Times,serif" font-size="14.00">Service</text>
<polyline fill="none" stroke="black" points="524,-497 768,-497 "/>
<text text-anchor="start" x="532" y="-481.8" font-family="Times,serif" font-size="14.00">id :integer</text>
<text text-anchor="start" x="532" y="-466.8" font-family="Times,serif" font-size="14.00">value :integer</text>
<text text-anchor="start" x="532" y="-451.8" font-family="Times,serif" font-size="14.00">geo_zone :character varying</text>
<text text-anchor="start" x="532" y="-436.8" font-family="Times,serif" font-size="14.00">created_at :timestamp without time zone</text>
<text text-anchor="start" x="532" y="-421.8" font-family="Times,serif" font-size="14.00">updated_at :timestamp without time zone</text>
<text text-anchor="start" x="532" y="-406.8" font-family="Times,serif" font-size="14.00">user_id :integer</text>
</g>
<!-- Service&#45;&gt;Channel -->
<g id="edge4" class="edge"><title>Service&#45;&gt;Channel</title>
<path fill="none" stroke="#a0d79a" d="M646,-390.65C646,-365.749 646,-337.528 646,-312.446"/>
<ellipse fill="none" stroke="#a0d79a" cx="646" cy="-394.905" rx="4" ry="4"/>
<polygon fill="#a0d79a" stroke="#a0d79a" points="646,-312.275 650.5,-302.275 646,-307.275 646,-302.275 646,-302.275 646,-302.275 646,-307.275 641.5,-302.275 646,-312.275 646,-312.275"/>
</g>
<!-- Social -->
<g id="node9" class="node"><title>Social</title>
<path fill="none" stroke="black" d="M798,-399C798,-399 1018,-399 1018,-399 1024,-399 1030,-405 1030,-411 1030,-411 1030,-508 1030,-508 1030,-514 1024,-520 1018,-520 1018,-520 798,-520 798,-520 792,-520 786,-514 786,-508 786,-508 786,-411 786,-411 786,-405 792,-399 798,-399"/>
<text text-anchor="middle" x="908" y="-504.8" font-family="Times,serif" font-size="14.00">Social</text>
<polyline fill="none" stroke="black" points="786,-497 1030,-497 "/>
<text text-anchor="start" x="794" y="-481.8" font-family="Times,serif" font-size="14.00">id :integer</text>
<text text-anchor="start" x="794" y="-466.8" font-family="Times,serif" font-size="14.00">name :character varying</text>
<text text-anchor="start" x="794" y="-451.8" font-family="Times,serif" font-size="14.00">link :character varying</text>
<text text-anchor="start" x="794" y="-436.8" font-family="Times,serif" font-size="14.00">user_id :integer</text>
<text text-anchor="start" x="794" y="-421.8" font-family="Times,serif" font-size="14.00">created_at :timestamp without time zone</text>
<text text-anchor="start" x="794" y="-406.8" font-family="Times,serif" font-size="14.00">updated_at :timestamp without time zone</text>
</g>
<!-- Language -->
<g id="node10" class="node"><title>Language</title>
<path fill="none" stroke="black" d="M1060,-376.5C1060,-376.5 1280,-376.5 1280,-376.5 1286,-376.5 1292,-382.5 1292,-388.5 1292,-388.5 1292,-530.5 1292,-530.5 1292,-536.5 1286,-542.5 1280,-542.5 1280,-542.5 1060,-542.5 1060,-542.5 1054,-542.5 1048,-536.5 1048,-530.5 1048,-530.5 1048,-388.5 1048,-388.5 1048,-382.5 1054,-376.5 1060,-376.5"/>
<text text-anchor="middle" x="1170" y="-527.3" font-family="Times,serif" font-size="14.00">Language</text>
<polyline fill="none" stroke="black" points="1048,-519.5 1292,-519.5 "/>
<text text-anchor="start" x="1056" y="-504.3" font-family="Times,serif" font-size="14.00">id :integer</text>
<text text-anchor="start" x="1056" y="-489.3" font-family="Times,serif" font-size="14.00">language :character varying</text>
<text text-anchor="start" x="1056" y="-474.3" font-family="Times,serif" font-size="14.00">proficiency :character varying</text>
<text text-anchor="start" x="1056" y="-459.3" font-family="Times,serif" font-size="14.00">certificate :boolean</text>
<text text-anchor="start" x="1056" y="-444.3" font-family="Times,serif" font-size="14.00">system_of_measure :character varying</text>
<text text-anchor="start" x="1056" y="-429.3" font-family="Times,serif" font-size="14.00">score :integer</text>
<text text-anchor="start" x="1056" y="-414.3" font-family="Times,serif" font-size="14.00">user_id :integer</text>
<text text-anchor="start" x="1056" y="-399.3" font-family="Times,serif" font-size="14.00">created_at :timestamp without time zone</text>
<text text-anchor="start" x="1056" y="-384.3" font-family="Times,serif" font-size="14.00">updated_at :timestamp without time zone</text>
</g>
<!-- User -->
<g id="node12" class="node"><title>User</title>
<path fill="none" stroke="black" d="M501.5,-579.5C501.5,-579.5 790.5,-579.5 790.5,-579.5 796.5,-579.5 802.5,-585.5 802.5,-591.5 802.5,-591.5 802.5,-868.5 802.5,-868.5 802.5,-874.5 796.5,-880.5 790.5,-880.5 790.5,-880.5 501.5,-880.5 501.5,-880.5 495.5,-880.5 489.5,-874.5 489.5,-868.5 489.5,-868.5 489.5,-591.5 489.5,-591.5 489.5,-585.5 495.5,-579.5 501.5,-579.5"/>
<text text-anchor="middle" x="646" y="-865.3" font-family="Times,serif" font-size="14.00">User</text>
<polyline fill="none" stroke="black" points="489.5,-857.5 802.5,-857.5 "/>
<text text-anchor="start" x="497.5" y="-842.3" font-family="Times,serif" font-size="14.00">id :integer</text>
<text text-anchor="start" x="497.5" y="-827.3" font-family="Times,serif" font-size="14.00">email :character varying</text>
<text text-anchor="start" x="497.5" y="-812.3" font-family="Times,serif" font-size="14.00">encrypted_password :character varying</text>
<text text-anchor="start" x="497.5" y="-797.3" font-family="Times,serif" font-size="14.00">reset_password_token :character varying</text>
<text text-anchor="start" x="497.5" y="-782.3" font-family="Times,serif" font-size="14.00">reset_password_sent_at :timestamp without time zone</text>
<text text-anchor="start" x="497.5" y="-767.3" font-family="Times,serif" font-size="14.00">remember_created_at :timestamp without time zone</text>
<text text-anchor="start" x="497.5" y="-752.3" font-family="Times,serif" font-size="14.00">sign_in_count :integer</text>
<text text-anchor="start" x="497.5" y="-737.3" font-family="Times,serif" font-size="14.00">current_sign_in_at :timestamp without time zone</text>
<text text-anchor="start" x="497.5" y="-722.3" font-family="Times,serif" font-size="14.00">last_sign_in_at :timestamp without time zone</text>
<text text-anchor="start" x="497.5" y="-707.3" font-family="Times,serif" font-size="14.00">current_sign_in_ip :character varying</text>
<text text-anchor="start" x="497.5" y="-692.3" font-family="Times,serif" font-size="14.00">last_sign_in_ip :character varying</text>
<text text-anchor="start" x="497.5" y="-677.3" font-family="Times,serif" font-size="14.00">created_at :timestamp without time zone</text>
<text text-anchor="start" x="497.5" y="-662.3" font-family="Times,serif" font-size="14.00">updated_at :timestamp without time zone</text>
<text text-anchor="start" x="497.5" y="-647.3" font-family="Times,serif" font-size="14.00">provider :character varying</text>
<text text-anchor="start" x="497.5" y="-632.3" font-family="Times,serif" font-size="14.00">uid :character varying</text>
<text text-anchor="start" x="497.5" y="-617.3" font-family="Times,serif" font-size="14.00">name :character varying</text>
<text text-anchor="start" x="497.5" y="-602.3" font-family="Times,serif" font-size="14.00">headline :character varying</text>
<text text-anchor="start" x="497.5" y="-587.3" font-family="Times,serif" font-size="14.00">image :character varying</text>
</g>
<!-- User&#45;&gt;Study -->
<g id="edge5" class="edge"><title>User&#45;&gt;Study</title>
<path fill="none" stroke="#6c3d8b" d="M482.067,-580.001C481.379,-579.664 480.69,-579.33 480,-579 387.845,-534.933 348.614,-578.951 253,-543 249.855,-541.818 246.705,-540.554 243.558,-539.22"/>
<ellipse fill="none" stroke="#6c3d8b" cx="485.847" cy="-581.934" rx="4.00002" ry="4.00002"/>
<polygon fill="#6c3d8b" stroke="#6c3d8b" points="243.266,-539.09 235.966,-530.907 238.7,-537.053 234.133,-535.017 234.133,-535.017 234.133,-535.017 238.7,-537.053 232.3,-539.127 243.266,-539.09 243.266,-539.09"/>
</g>
<!-- User&#45;&gt;Enterprise -->
<g id="edge6" class="edge"><title>User&#45;&gt;Enterprise</title>
<path fill="none" stroke="#d5c0b9" d="M494.131,-573.363C483.776,-562.752 473.6,-552.323 463.87,-542.352"/>
<ellipse fill="none" stroke="#d5c0b9" cx="497.268" cy="-576.578" rx="4.00002" ry="4.00002"/>
<polygon fill="#d5c0b9" stroke="#d5c0b9" points="463.852,-542.333 460.089,-532.033 460.36,-538.754 456.868,-535.176 456.868,-535.176 456.868,-535.176 460.36,-538.754 453.647,-538.319 463.852,-542.333 463.852,-542.333"/>
</g>
<!-- User&#45;&gt;Service -->
<g id="edge9" class="edge"><title>User&#45;&gt;Service</title>
<path fill="none" stroke="#017f31" d="M646,-571.124C646,-556.904 646,-543.049 646,-530.225"/>
<ellipse fill="none" stroke="#017f31" cx="646" cy="-575.441" rx="4" ry="4"/>
<polygon fill="#017f31" stroke="#017f31" points="646,-530.173 650.5,-520.173 646,-525.173 646,-520.173 646,-520.173 646,-520.173 646,-525.173 641.5,-520.174 646,-530.173 646,-530.173"/>
</g>
<!-- User&#45;&gt;Social -->
<g id="edge7" class="edge"><title>User&#45;&gt;Social</title>
<path fill="none" stroke="#8e31cb" d="M797.674,-573.563C813.367,-557.48 828.654,-541.814 842.603,-527.519"/>
<ellipse fill="none" stroke="#8e31cb" cx="794.732" cy="-576.578" rx="4.00002" ry="4.00002"/>
<polygon fill="#8e31cb" stroke="#8e31cb" points="842.787,-527.331 852.992,-523.316 846.279,-523.752 849.771,-520.173 849.771,-520.173 849.771,-520.173 846.279,-523.752 846.55,-517.031 842.787,-527.331 842.787,-527.331"/>
</g>
<!-- User&#45;&gt;Language -->
<g id="edge8" class="edge"><title>User&#45;&gt;Language</title>
<path fill="none" stroke="#b0ab9a" d="M809.933,-580.001C810.621,-579.664 811.31,-579.33 812,-579 901.276,-536.31 940.882,-576.286 1038.1,-542.994"/>
<ellipse fill="none" stroke="#b0ab9a" cx="806.153" cy="-581.934" rx="4.00002" ry="4.00002"/>
<polygon fill="#b0ab9a" stroke="#b0ab9a" points="1038.28,-542.928 1049.21,-543.772 1042.98,-541.234 1047.69,-539.539 1047.69,-539.539 1047.69,-539.539 1042.98,-541.234 1046.16,-535.305 1038.28,-542.928 1038.28,-542.928"/>
</g>
</g>
</svg>
