<?xml version="1.0" encoding="UTF-8" standalone="no"?>
<!DOCTYPE svg PUBLIC "-//W3C//DTD SVG 1.1//EN"
 "http://www.w3.org/Graphics/SVG/1.1/DTD/svg11.dtd">
<!-- Generated by graphviz version 2.38.0 (20140413.2041)
 -->
<!-- Title: models_diagram Pages: 1 -->
<svg width="726pt" height="498pt"
 viewBox="0.00 0.00 726.34 498.00" xmlns="http://www.w3.org/2000/svg" xmlns:xlink="http://www.w3.org/1999/xlink">
<g id="graph0" class="graph" transform="scale(1 1) rotate(0) translate(4 494)">
<title>models_diagram</title>
<polygon fill="none" stroke="none" points="-4,4 -4,-494 722.343,-494 722.343,4 -4,4"/>
<!-- _diagram_info -->
<g id="node1" class="node"><title>_diagram_info</title>
<text text-anchor="start" x="8" y="-363.6" font-family="Times,serif" font-size="13.00">Models diagram</text>
<text text-anchor="start" x="8" y="-349.6" font-family="Times,serif" font-size="13.00">Date: Apr 28 2017 &#45; 19:05</text>
<text text-anchor="start" x="8" y="-335.6" font-family="Times,serif" font-size="13.00">Migration version: 20170428204026</text>
<text text-anchor="start" x="8" y="-321.6" font-family="Times,serif" font-size="13.00">Generated by RailRoady 1.5.2</text>
<text text-anchor="start" x="8" y="-307.6" font-family="Times,serif" font-size="13.00">http://railroady.prestonlee.com</text>
</g>
<!-- Study -->
<g id="node2" class="node"><title>Study</title>
<path fill="none" stroke="black" d="M185,-0.5C185,-0.5 405,-0.5 405,-0.5 411,-0.5 417,-6.5 417,-12.5 417,-12.5 417,-139.5 417,-139.5 417,-145.5 411,-151.5 405,-151.5 405,-151.5 185,-151.5 185,-151.5 179,-151.5 173,-145.5 173,-139.5 173,-139.5 173,-12.5 173,-12.5 173,-6.5 179,-0.5 185,-0.5"/>
<text text-anchor="middle" x="295" y="-136.3" font-family="Times,serif" font-size="14.00">Study</text>
<polyline fill="none" stroke="black" points="173,-128.5 417,-128.5 "/>
<text text-anchor="start" x="181" y="-113.3" font-family="Times,serif" font-size="14.00">id :integer</text>
<text text-anchor="start" x="181" y="-98.3" font-family="Times,serif" font-size="14.00">title :character varying</text>
<text text-anchor="start" x="181" y="-83.3" font-family="Times,serif" font-size="14.00">initdate :date</text>
<text text-anchor="start" x="181" y="-68.3" font-family="Times,serif" font-size="14.00">enddate :date</text>
<text text-anchor="start" x="181" y="-53.3" font-family="Times,serif" font-size="14.00">grade :character varying</text>
<text text-anchor="start" x="181" y="-38.3" font-family="Times,serif" font-size="14.00">user_id :integer</text>
<text text-anchor="start" x="181" y="-23.3" font-family="Times,serif" font-size="14.00">created_at :timestamp without time zone</text>
<text text-anchor="start" x="181" y="-8.3" font-family="Times,serif" font-size="14.00">updated_at :timestamp without time zone</text>
</g>
<!-- ApplicationRecord -->
<g id="node3" class="node"><title>ApplicationRecord</title>
<ellipse fill="none" stroke="black" cx="641" cy="-339" rx="77.1866" ry="18"/>
<text text-anchor="middle" x="641" y="-335.3" font-family="Times,serif" font-size="14.00">ApplicationRecord</text>
</g>
<!-- User -->
<g id="node4" class="node"><title>User</title>
<path fill="none" stroke="black" d="M244.5,-188.5C244.5,-188.5 533.5,-188.5 533.5,-188.5 539.5,-188.5 545.5,-194.5 545.5,-200.5 545.5,-200.5 545.5,-477.5 545.5,-477.5 545.5,-483.5 539.5,-489.5 533.5,-489.5 533.5,-489.5 244.5,-489.5 244.5,-489.5 238.5,-489.5 232.5,-483.5 232.5,-477.5 232.5,-477.5 232.5,-200.5 232.5,-200.5 232.5,-194.5 238.5,-188.5 244.5,-188.5"/>
<text text-anchor="middle" x="389" y="-474.3" font-family="Times,serif" font-size="14.00">User</text>
<polyline fill="none" stroke="black" points="232.5,-466.5 545.5,-466.5 "/>
<text text-anchor="start" x="240.5" y="-451.3" font-family="Times,serif" font-size="14.00">id :integer</text>
<text text-anchor="start" x="240.5" y="-436.3" font-family="Times,serif" font-size="14.00">email :character varying</text>
<text text-anchor="start" x="240.5" y="-421.3" font-family="Times,serif" font-size="14.00">encrypted_password :character varying</text>
<text text-anchor="start" x="240.5" y="-406.3" font-family="Times,serif" font-size="14.00">reset_password_token :character varying</text>
<text text-anchor="start" x="240.5" y="-391.3" font-family="Times,serif" font-size="14.00">reset_password_sent_at :timestamp without time zone</text>
<text text-anchor="start" x="240.5" y="-376.3" font-family="Times,serif" font-size="14.00">remember_created_at :timestamp without time zone</text>
<text text-anchor="start" x="240.5" y="-361.3" font-family="Times,serif" font-size="14.00">sign_in_count :integer</text>
<text text-anchor="start" x="240.5" y="-346.3" font-family="Times,serif" font-size="14.00">current_sign_in_at :timestamp without time zone</text>
<text text-anchor="start" x="240.5" y="-331.3" font-family="Times,serif" font-size="14.00">last_sign_in_at :timestamp without time zone</text>
<text text-anchor="start" x="240.5" y="-316.3" font-family="Times,serif" font-size="14.00">current_sign_in_ip :character varying</text>
<text text-anchor="start" x="240.5" y="-301.3" font-family="Times,serif" font-size="14.00">last_sign_in_ip :character varying</text>
<text text-anchor="start" x="240.5" y="-286.3" font-family="Times,serif" font-size="14.00">created_at :timestamp without time zone</text>
<text text-anchor="start" x="240.5" y="-271.3" font-family="Times,serif" font-size="14.00">updated_at :timestamp without time zone</text>
<text text-anchor="start" x="240.5" y="-256.3" font-family="Times,serif" font-size="14.00">provider :character varying</text>
<text text-anchor="start" x="240.5" y="-241.3" font-family="Times,serif" font-size="14.00">uid :character varying</text>
<text text-anchor="start" x="240.5" y="-226.3" font-family="Times,serif" font-size="14.00">name :character varying</text>
<text text-anchor="start" x="240.5" y="-211.3" font-family="Times,serif" font-size="14.00">headline :character varying</text>
<text text-anchor="start" x="240.5" y="-196.3" font-family="Times,serif" font-size="14.00">image :character varying</text>
</g>
<!-- User&#45;&gt;Study -->
<g id="edge1" class="edge"><title>User&#45;&gt;Study</title>
<path fill="none" stroke="#875082" d="M332.375,-180.775C330.016,-174.225 327.691,-167.77 325.425,-161.478"/>
<ellipse fill="none" stroke="#875082" cx="333.782" cy="-184.681" rx="4.00001" ry="4.00001"/>
<polygon fill="#875082" stroke="#875082" points="325.305,-161.145 326.15,-150.211 323.611,-156.44 321.916,-151.736 321.916,-151.736 321.916,-151.736 323.611,-156.44 317.683,-153.261 325.305,-161.145 325.305,-161.145"/>
</g>
<!-- Enterprise -->
<g id="node5" class="node"><title>Enterprise</title>
<ellipse fill="none" stroke="black" cx="482" cy="-76" rx="46.5926" ry="18"/>
<text text-anchor="middle" x="482" y="-72.3" font-family="Times,serif" font-size="14.00">Enterprise</text>
</g>
<!-- User&#45;&gt;Enterprise -->
<g id="edge2" class="edge"><title>User&#45;&gt;Enterprise</title>
<path fill="none" stroke="#4153d9" d="M444.995,-180.854C455.686,-150.85 465.677,-122.81 472.577,-103.446"/>
<ellipse fill="none" stroke="#4153d9" cx="443.633" cy="-184.677" rx="4.00001" ry="4.00001"/>
<polygon fill="#4153d9" stroke="#4153d9" points="472.626,-103.306 480.222,-95.3967 474.305,-98.5962 475.983,-93.8862 475.983,-93.8862 475.983,-93.8862 474.305,-98.5962 471.744,-92.3758 472.626,-103.306 472.626,-103.306"/>
</g>
</g>
</svg>
