<?xml version="1.0" encoding="UTF-8" standalone="no"?>
<!DOCTYPE svg PUBLIC "-//W3C//DTD SVG 1.1//EN"
 "http://www.w3.org/Graphics/SVG/1.1/DTD/svg11.dtd">
<!-- Generated by graphviz version 2.38.0 (20140413.2041)
 -->
<!-- Title: models_diagram Pages: 1 -->
<svg width="496pt" height="302pt"
 viewBox="0.00 0.00 496.50 302.00" xmlns="http://www.w3.org/2000/svg" xmlns:xlink="http://www.w3.org/1999/xlink">
<g id="graph0" class="graph" transform="scale(1 1) rotate(0) translate(4 298)">
<title>models_diagram</title>
<polygon fill="none" stroke="none" points="-4,4 -4,-298 492.496,-298 492.496,4 -4,4"/>
<!-- _diagram_info -->
<g id="node1" class="node"><title>_diagram_info</title>
<text text-anchor="start" x="8" y="-279.6" font-family="Times,serif" font-size="13.00">Models diagram</text>
<text text-anchor="start" x="8" y="-265.6" font-family="Times,serif" font-size="13.00">Date: Apr 29 2017 &#45; 13:15</text>
<text text-anchor="start" x="8" y="-251.6" font-family="Times,serif" font-size="13.00">Migration version: 20170429161256</text>
<text text-anchor="start" x="8" y="-237.6" font-family="Times,serif" font-size="13.00">Generated by RailRoady 1.5.2</text>
<text text-anchor="start" x="8" y="-223.6" font-family="Times,serif" font-size="13.00">http://railroady.prestonlee.com</text>
</g>
<!-- Study -->
<g id="node2" class="node"><title>Study</title>
<ellipse fill="none" stroke="black" cx="61" cy="-162" rx="31.3957" ry="18"/>
<text text-anchor="middle" x="61" y="-158.3" font-family="Times,serif" font-size="14.00">Study</text>
</g>
<!-- Channel -->
<g id="node3" class="node"><title>Channel</title>
<ellipse fill="none" stroke="black" cx="259" cy="-90" rx="40.0939" ry="18"/>
<text text-anchor="middle" x="259" y="-86.3" font-family="Times,serif" font-size="14.00">Channel</text>
</g>
<!-- ApplicationRecord -->
<g id="node4" class="node"><title>ApplicationRecord</title>
<ellipse fill="none" stroke="black" cx="382" cy="-255" rx="77.1866" ry="18"/>
<text text-anchor="middle" x="382" y="-251.3" font-family="Times,serif" font-size="14.00">ApplicationRecord</text>
</g>
<!-- Charge -->
<g id="node5" class="node"><title>Charge</title>
<ellipse fill="none" stroke="black" cx="74" cy="-90" rx="36.2938" ry="18"/>
<text text-anchor="middle" x="74" y="-86.3" font-family="Times,serif" font-size="14.00">Charge</text>
</g>
<!-- Specialty -->
<g id="node11" class="node"><title>Specialty</title>
<ellipse fill="none" stroke="black" cx="74" cy="-18" rx="43.5923" ry="18"/>
<text text-anchor="middle" x="74" y="-14.3" font-family="Times,serif" font-size="14.00">Specialty</text>
</g>
<!-- Charge&#45;&gt;Specialty -->
<g id="edge1" class="edge"><title>Charge&#45;&gt;Specialty</title>
<path fill="none" stroke="#f17219" d="M74,-63.6398C74,-58.0629 74,-52.1319 74,-46.4761"/>
<ellipse fill="none" stroke="#f17219" cx="74" cy="-67.6966" rx="4" ry="4"/>
<polygon fill="#f17219" stroke="#f17219" points="74.0001,-46.1043 78.5,-36.1043 74,-41.1043 74,-36.1043 74,-36.1043 74,-36.1043 74,-41.1043 69.5,-36.1044 74.0001,-46.1043 74.0001,-46.1043"/>
</g>
<!-- Enterprise -->
<g id="node6" class="node"><title>Enterprise</title>
<ellipse fill="none" stroke="black" cx="157" cy="-162" rx="46.5926" ry="18"/>
<text text-anchor="middle" x="157" y="-158.3" font-family="Times,serif" font-size="14.00">Enterprise</text>
</g>
<!-- Enterprise&#45;&gt;Charge -->
<g id="edge2" class="edge"><title>Enterprise&#45;&gt;Charge</title>
<path fill="none" stroke="#d8053d" d="M132.009,-139.923C121.733,-131.257 109.843,-121.229 99.5136,-112.518"/>
<ellipse fill="none" stroke="#d8053d" cx="135.108" cy="-142.537" rx="4.00002" ry="4.00002"/>
<polygon fill="#d8053d" stroke="#d8053d" points="99.2687,-112.311 94.5256,-102.424 95.4466,-109.087 91.6244,-105.864 91.6244,-105.864 91.6244,-105.864 95.4466,-109.087 88.7232,-109.304 99.2687,-112.311 99.2687,-112.311"/>
</g>
<!-- Sector -->
<g id="node8" class="node"><title>Sector</title>
<ellipse fill="none" stroke="black" cx="162" cy="-90" rx="33.2948" ry="18"/>
<text text-anchor="middle" x="162" y="-86.3" font-family="Times,serif" font-size="14.00">Sector</text>
</g>
<!-- Enterprise&#45;&gt;Sector -->
<g id="edge3" class="edge"><title>Enterprise&#45;&gt;Sector</title>
<path fill="none" stroke="#932bdb" d="M158.811,-135.64C159.21,-130.063 159.633,-124.132 160.037,-118.476"/>
<ellipse fill="none" stroke="#932bdb" cx="158.521" cy="-139.707" rx="4" ry="4"/>
<polygon fill="#932bdb" stroke="#932bdb" points="160.066,-118.079 165.267,-108.425 160.422,-113.092 160.778,-108.104 160.778,-108.104 160.778,-108.104 160.422,-113.092 156.29,-107.784 160.066,-118.079 160.066,-118.079"/>
</g>
<!-- Service -->
<g id="node7" class="node"><title>Service</title>
<ellipse fill="none" stroke="black" cx="259" cy="-162" rx="37.0935" ry="18"/>
<text text-anchor="middle" x="259" y="-158.3" font-family="Times,serif" font-size="14.00">Service</text>
</g>
<!-- Service&#45;&gt;Channel -->
<g id="edge4" class="edge"><title>Service&#45;&gt;Channel</title>
<path fill="none" stroke="#21d112" d="M259,-135.64C259,-130.063 259,-124.132 259,-118.476"/>
<ellipse fill="none" stroke="#21d112" cx="259" cy="-139.697" rx="4" ry="4"/>
<polygon fill="#21d112" stroke="#21d112" points="259,-118.104 263.5,-108.104 259,-113.104 259,-108.104 259,-108.104 259,-108.104 259,-113.104 254.5,-108.104 259,-118.104 259,-118.104"/>
</g>
<!-- Social -->
<g id="node9" class="node"><title>Social</title>
<ellipse fill="none" stroke="black" cx="347" cy="-162" rx="32.4942" ry="18"/>
<text text-anchor="middle" x="347" y="-158.3" font-family="Times,serif" font-size="14.00">Social</text>
</g>
<!-- Language -->
<g id="node10" class="node"><title>Language</title>
<ellipse fill="none" stroke="black" cx="443" cy="-162" rx="45.4919" ry="18"/>
<text text-anchor="middle" x="443" y="-158.3" font-family="Times,serif" font-size="14.00">Language</text>
</g>
<!-- User -->
<g id="node12" class="node"><title>User</title>
<ellipse fill="none" stroke="black" cx="259" cy="-255" rx="27.0966" ry="18"/>
<text text-anchor="middle" x="259" y="-251.3" font-family="Times,serif" font-size="14.00">User</text>
</g>
<!-- User&#45;&gt;Study -->
<g id="edge5" class="edge"><title>User&#45;&gt;Study</title>
<path fill="none" stroke="#514a10" d="M241.942,-232.097C236.435,-226.184 229.943,-220.253 223,-216 174.794,-186.466 154.214,-199.088 101,-180 98.7827,-179.205 96.5113,-178.35 94.232,-177.464"/>
<ellipse fill="none" stroke="#514a10" cx="244.865" cy="-235.422" rx="4.00002" ry="4.00002"/>
<polygon fill="#514a10" stroke="#514a10" points="94.2055,-177.453 86.6243,-169.53 89.5708,-175.577 84.936,-173.701 84.936,-173.701 84.936,-173.701 89.5708,-175.577 83.2477,-177.872 94.2055,-177.453 94.2055,-177.453"/>
</g>
<!-- User&#45;&gt;Enterprise -->
<g id="edge6" class="edge"><title>User&#45;&gt;Enterprise</title>
<path fill="none" stroke="#b6fec0" d="M240.185,-233.12C234.787,-227.414 228.792,-221.336 223,-216 211.26,-205.183 197.598,-194.002 185.761,-184.715"/>
<ellipse fill="none" stroke="#b6fec0" cx="243.043" cy="-236.186" rx="4.00002" ry="4.00002"/>
<polygon fill="#b6fec0" stroke="#b6fec0" points="185.418,-184.449 180.276,-174.763 181.468,-181.384 177.517,-178.319 177.517,-178.319 177.517,-178.319 181.468,-181.384 174.759,-181.874 185.418,-184.449 185.418,-184.449"/>
</g>
<!-- User&#45;&gt;Service -->
<g id="edge9" class="edge"><title>User&#45;&gt;Service</title>
<path fill="none" stroke="#5c9356" d="M259,-228.729C259,-216.725 259,-202.362 259,-190.129"/>
<ellipse fill="none" stroke="#5c9356" cx="259" cy="-232.884" rx="4" ry="4"/>
<polygon fill="#5c9356" stroke="#5c9356" points="259,-190.04 263.5,-180.04 259,-185.04 259,-180.04 259,-180.04 259,-180.04 259,-185.04 254.5,-180.04 259,-190.04 259,-190.04"/>
</g>
<!-- User&#45;&gt;Social -->
<g id="edge7" class="edge"><title>User&#45;&gt;Social</title>
<path fill="none" stroke="#0f2e58" d="M278.805,-233.52C292.63,-219.223 311.081,-200.144 325.304,-185.436"/>
<ellipse fill="none" stroke="#0f2e58" cx="275.919" cy="-236.504" rx="4.00002" ry="4.00002"/>
<polygon fill="#0f2e58" stroke="#0f2e58" points="325.358,-185.38 335.544,-181.32 328.834,-181.786 332.309,-178.191 332.309,-178.191 332.309,-178.191 328.834,-181.786 329.075,-175.063 325.358,-185.38 325.358,-185.38"/>
</g>
<!-- User&#45;&gt;Language -->
<g id="edge8" class="edge"><title>User&#45;&gt;Language</title>
<path fill="none" stroke="#7cbc15" d="M276.426,-232.746C282.171,-226.719 288.918,-220.563 296,-216 305.085,-210.146 359.823,-191.042 399.855,-177.453"/>
<ellipse fill="none" stroke="#7cbc15" cx="273.73" cy="-235.708" rx="4.00002" ry="4.00002"/>
<polygon fill="#7cbc15" stroke="#7cbc15" points="399.952,-177.421 410.866,-178.477 404.688,-175.818 409.424,-174.215 409.424,-174.215 409.424,-174.215 404.688,-175.818 407.981,-169.952 399.952,-177.421 399.952,-177.421"/>
</g>
</g>
</svg>
