<?xml version="1.0" encoding="UTF-8" standalone="no"?>
<!DOCTYPE svg PUBLIC "-//W3C//DTD SVG 1.1//EN"
 "http://www.w3.org/Graphics/SVG/1.1/DTD/svg11.dtd">
<!-- Generated by graphviz version 2.38.0 (20140413.2041)
 -->
<!-- Title: models_diagram Pages: 1 -->
<svg width="725pt" height="310pt"
 viewBox="0.00 0.00 725.50 310.00" xmlns="http://www.w3.org/2000/svg" xmlns:xlink="http://www.w3.org/1999/xlink">
<g id="graph0" class="graph" transform="scale(1 1) rotate(0) translate(4 306)">
<title>models_diagram</title>
<polygon fill="none" stroke="none" points="-4,4 -4,-306 721.5,-306 721.5,4 -4,4"/>
<!-- _diagram_info -->
<g id="node1" class="node"><title>_diagram_info</title>
<text text-anchor="start" x="8" y="-175.6" font-family="Times,serif" font-size="13.00">Models diagram</text>
<text text-anchor="start" x="8" y="-161.6" font-family="Times,serif" font-size="13.00">Date: Apr 28 2017 &#45; 17:21</text>
<text text-anchor="start" x="8" y="-147.6" font-family="Times,serif" font-size="13.00">Migration version: 20170326003704</text>
<text text-anchor="start" x="8" y="-133.6" font-family="Times,serif" font-size="13.00">Generated by RailRoady 1.5.2</text>
<text text-anchor="start" x="8" y="-119.6" font-family="Times,serif" font-size="13.00">http://railroady.prestonlee.com</text>
</g>
<!-- ApplicationRecord -->
<g id="node2" class="node"><title>ApplicationRecord</title>
<ellipse fill="none" stroke="black" cx="309" cy="-151" rx="77.1866" ry="18"/>
<text text-anchor="middle" x="309" y="-147.3" font-family="Times,serif" font-size="14.00">ApplicationRecord</text>
</g>
<!-- User -->
<g id="node3" class="node"><title>User</title>
<path fill="none" stroke="black" d="M416.5,-0.5C416.5,-0.5 705.5,-0.5 705.5,-0.5 711.5,-0.5 717.5,-6.5 717.5,-12.5 717.5,-12.5 717.5,-289.5 717.5,-289.5 717.5,-295.5 711.5,-301.5 705.5,-301.5 705.5,-301.5 416.5,-301.5 416.5,-301.5 410.5,-301.5 404.5,-295.5 404.5,-289.5 404.5,-289.5 404.5,-12.5 404.5,-12.5 404.5,-6.5 410.5,-0.5 416.5,-0.5"/>
<text text-anchor="middle" x="561" y="-286.3" font-family="Times,serif" font-size="14.00">User</text>
<polyline fill="none" stroke="black" points="404.5,-278.5 717.5,-278.5 "/>
<text text-anchor="start" x="412.5" y="-263.3" font-family="Times,serif" font-size="14.00">id :integer</text>
<text text-anchor="start" x="412.5" y="-248.3" font-family="Times,serif" font-size="14.00">email :character varying</text>
<text text-anchor="start" x="412.5" y="-233.3" font-family="Times,serif" font-size="14.00">encrypted_password :character varying</text>
<text text-anchor="start" x="412.5" y="-218.3" font-family="Times,serif" font-size="14.00">reset_password_token :character varying</text>
<text text-anchor="start" x="412.5" y="-203.3" font-family="Times,serif" font-size="14.00">reset_password_sent_at :timestamp without time zone</text>
<text text-anchor="start" x="412.5" y="-188.3" font-family="Times,serif" font-size="14.00">remember_created_at :timestamp without time zone</text>
<text text-anchor="start" x="412.5" y="-173.3" font-family="Times,serif" font-size="14.00">sign_in_count :integer</text>
<text text-anchor="start" x="412.5" y="-158.3" font-family="Times,serif" font-size="14.00">current_sign_in_at :timestamp without time zone</text>
<text text-anchor="start" x="412.5" y="-143.3" font-family="Times,serif" font-size="14.00">last_sign_in_at :timestamp without time zone</text>
<text text-anchor="start" x="412.5" y="-128.3" font-family="Times,serif" font-size="14.00">current_sign_in_ip :character varying</text>
<text text-anchor="start" x="412.5" y="-113.3" font-family="Times,serif" font-size="14.00">last_sign_in_ip :character varying</text>
<text text-anchor="start" x="412.5" y="-98.3" font-family="Times,serif" font-size="14.00">created_at :timestamp without time zone</text>
<text text-anchor="start" x="412.5" y="-83.3" font-family="Times,serif" font-size="14.00">updated_at :timestamp without time zone</text>
<text text-anchor="start" x="412.5" y="-68.3" font-family="Times,serif" font-size="14.00">provider :character varying</text>
<text text-anchor="start" x="412.5" y="-53.3" font-family="Times,serif" font-size="14.00">uid :character varying</text>
<text text-anchor="start" x="412.5" y="-38.3" font-family="Times,serif" font-size="14.00">name :character varying</text>
<text text-anchor="start" x="412.5" y="-23.3" font-family="Times,serif" font-size="14.00">headline :character varying</text>
<text text-anchor="start" x="412.5" y="-8.3" font-family="Times,serif" font-size="14.00">image :character varying</text>
</g>
</g>
</svg>
