<?xml version="1.0" encoding="UTF-8" standalone="no"?>
<!DOCTYPE svg PUBLIC "-//W3C//DTD SVG 1.1//EN"
 "http://www.w3.org/Graphics/SVG/1.1/DTD/svg11.dtd">
<!-- Generated by graphviz version 2.38.0 (20140413.2041)
 -->
<!-- Title: models_diagram Pages: 1 -->
<svg width="467pt" height="158pt"
 viewBox="0.00 0.00 467.34 158.00" xmlns="http://www.w3.org/2000/svg" xmlns:xlink="http://www.w3.org/1999/xlink">
<g id="graph0" class="graph" transform="scale(1 1) rotate(0) translate(4 154)">
<title>models_diagram</title>
<polygon fill="none" stroke="none" points="-4,4 -4,-154 463.343,-154 463.343,4 -4,4"/>
<!-- _diagram_info -->
<g id="node1" class="node"><title>_diagram_info</title>
<text text-anchor="start" x="8" y="-135.6" font-family="Times,serif" font-size="13.00">Models diagram</text>
<text text-anchor="start" x="8" y="-121.6" font-family="Times,serif" font-size="13.00">Date: Apr 28 2017 &#45; 19:05</text>
<text text-anchor="start" x="8" y="-107.6" font-family="Times,serif" font-size="13.00">Migration version: 20170428204026</text>
<text text-anchor="start" x="8" y="-93.6" font-family="Times,serif" font-size="13.00">Generated by RailRoady 1.5.2</text>
<text text-anchor="start" x="8" y="-79.6" font-family="Times,serif" font-size="13.00">http://railroady.prestonlee.com</text>
</g>
<!-- Study -->
<g id="node2" class="node"><title>Study</title>
<ellipse fill="none" stroke="black" cx="211" cy="-18" rx="31.3957" ry="18"/>
<text text-anchor="middle" x="211" y="-14.3" font-family="Times,serif" font-size="14.00">Study</text>
</g>
<!-- ApplicationRecord -->
<g id="node3" class="node"><title>ApplicationRecord</title>
<ellipse fill="none" stroke="black" cx="382" cy="-111" rx="77.1866" ry="18"/>
<text text-anchor="middle" x="382" y="-107.3" font-family="Times,serif" font-size="14.00">ApplicationRecord</text>
</g>
<!-- Enterprise -->
<g id="node4" class="node"><title>Enterprise</title>
<ellipse fill="none" stroke="black" cx="307" cy="-18" rx="46.5926" ry="18"/>
<text text-anchor="middle" x="307" y="-14.3" font-family="Times,serif" font-size="14.00">Enterprise</text>
</g>
<!-- User -->
<g id="node5" class="node"><title>User</title>
<ellipse fill="none" stroke="black" cx="259" cy="-111" rx="27.0966" ry="18"/>
<text text-anchor="middle" x="259" y="-107.3" font-family="Times,serif" font-size="14.00">User</text>
</g>
<!-- User&#45;&gt;Study -->
<g id="edge1" class="edge"><title>User&#45;&gt;Study</title>
<path fill="none" stroke="#1b716f" d="M246.504,-86.3102C239.719,-73.4462 231.326,-57.5355 224.405,-44.4135"/>
<ellipse fill="none" stroke="#1b716f" cx="248.552" cy="-90.193" rx="4.00002" ry="4.00002"/>
<polygon fill="#1b716f" stroke="#1b716f" points="224.335,-44.2799 223.649,-33.3355 222.002,-39.8574 219.669,-35.4349 219.669,-35.4349 219.669,-35.4349 222.002,-39.8574 215.689,-37.5344 224.335,-44.2799 224.335,-44.2799"/>
</g>
<!-- User&#45;&gt;Enterprise -->
<g id="edge2" class="edge"><title>User&#45;&gt;Enterprise</title>
<path fill="none" stroke="#efb30d" d="M271.47,-86.3589C278.209,-73.5825 286.539,-57.7898 293.44,-44.7082"/>
<ellipse fill="none" stroke="#efb30d" cx="269.448" cy="-90.193" rx="4.00002" ry="4.00002"/>
<polygon fill="#efb30d" stroke="#efb30d" points="293.503,-44.5888 302.148,-37.8433 295.835,-40.1663 298.168,-35.7438 298.168,-35.7438 298.168,-35.7438 295.835,-40.1663 294.188,-33.6443 293.503,-44.5888 293.503,-44.5888"/>
</g>
</g>
</svg>
